<svg width="300" height="135" viewBox="0 0 300 135" fill="none"
  xmlns="http://www.w3.org/2000/svg" role="img" aria-labelledby="langs-title langs-desc">
  <title id="langs-title">Linguagens mais utilizadas</title>
  <desc id="langs-desc">TypeScript 31.31%, Rust 29.58%, JavaScript 15.46%, C# 9.53%, CSS 8.82%, VBScript 5.31%.</desc>
  <style>
    .language { font: 600 11px "Segoe UI", Ubuntu, "Helvetica Neue", sans-serif; fill: #1d87da; }
    .empty { font: 600 13px "Segoe UI", Ubuntu, "Helvetica Neue", sans-serif; fill: #1d87da; }
  </style>
  <defs>
    <clipPath id="language-progress-mask">
      <rect x="25" y="25" width="250" height="8" rx="5"/>
    </clipPath>
  </defs>
  <rect x="0.5" y="0.5" width="299" height="134" rx="4.5" fill="transparent"
    stroke="#e4e2e2" stroke-opacity="0"/>
  <g clip-path="url(#language-progress-mask)">
    <rect x="25.00" y="25" width="78.26" height="8" fill="#3178c6"/>
    <rect x="103.26" y="25" width="73.95" height="8" fill="#dea584"/>
    <rect x="177.21" y="25" width="38.66" height="8" fill="#f1e05a"/>
    <rect x="215.87" y="25" width="23.82" height="8" fill="#178600"/>
    <rect x="239.70" y="25" width="22.04" height="8" fill="#663399"/>
    <rect x="261.74" y="25" width="13.26" height="8" fill="#15dcdc"/>
  </g>
  <g transform="translate(25 50)">
    <circle cx="5" cy="6" r="5" fill="#3178c6"/>
    <text class="language" x="15" y="10">TypeScript 31,31%</text>
  </g>
  <g transform="translate(25 75)">
    <circle cx="5" cy="6" r="5" fill="#dea584"/>
    <text class="language" x="15" y="10">Rust 29,58%</text>
  </g>
  <g transform="translate(25 100)">
    <circle cx="5" cy="6" r="5" fill="#f1e05a"/>
    <text class="language" x="15" y="10">JavaScript 15,46%</text>
  </g>
  <g transform="translate(175 50)">
    <circle cx="5" cy="6" r="5" fill="#178600"/>
    <text class="language" x="15" y="10">C# 9,53%</text>
  </g>
  <g transform="translate(175 75)">
    <circle cx="5" cy="6" r="5" fill="#663399"/>
    <text class="language" x="15" y="10">CSS 8,82%</text>
  </g>
  <g transform="translate(175 100)">
    <circle cx="5" cy="6" r="5" fill="#15dcdc"/>
    <text class="language" x="15" y="10">VBScript 5,31%</text>
  </g>
</svg>
